<?xml version="1.0" encoding="utf-8"?>
<!-- Generator: Adobe Illustrator 26.0.3, SVG Export Plug-In . SVG Version: 6.00 Build 0)  -->
<svg version="1.1" id="Layer_1" xmlns="http://www.w3.org/2000/svg" xmlns:xlink="http://www.w3.org/1999/xlink" x="0px" y="0px"
	 viewBox="0 0 1000 781.33" style="enable-background:new 0 0 1000 781.33;" xml:space="preserve">
<style type="text/css">
	.st0{fill:#449AA0;}
	.st1{fill:#434343;}
	.st2{display:none;fill:#434343;}
	.st3{font-family:'DINCondensed-Light';}
	.st4{font-size:85.5084px;}
	.st5{letter-spacing:34;}
	.st6{fill:url(#SVGID_1_);}
	.st7{fill:url(#SVGID_00000093865808291904589530000007256229399514653615_);}
	.st8{fill:url(#SVGID_00000178165477391184829920000014618008696220092598_);}
</style>
<g>
	<path class="st0" d="M9.45,679.28h9.7l33.45,61.28h0.28l33.59-61.28h9.7v93.88h-8.01v-59.31c0-6.32,0.28-17,0.42-23.61h-0.7
		c-1.26,2.81-6.18,13.35-9.13,18.69l-24.17,43.99h-3.51l-24.17-43.99c-2.95-5.34-7.87-15.74-9.13-18.69h-0.7
		c0.14,6.61,0.28,17.29,0.28,23.61v59.31H9.45V679.28z"/>
	<path class="st0" d="M193.98,772.6l-0.56,0.56h-7.73l-10.96-27.26h-45.54l-10.96,27.26h-7.87l-0.42-0.56l37.52-93.32h8.99
		L193.98,772.6z M171.91,739.01l-9.42-23.47c-3.65-8.71-7.03-18.41-10.26-28.11h-0.56c-3.23,9.7-6.75,19.39-10.4,28.11l-9.42,23.47
		H171.91z"/>
	<path class="st0" d="M264.11,765.71v7.45h-56.36v-93.88h7.87v86.43H264.11z"/>
	<path class="st0" d="M338.59,765.71v7.45h-59.73v-93.88h57.48v7.45h-49.61v34.57h46.94v7.17h-46.94v37.24H338.59z"/>
	<path class="st0" d="M420.53,772.6l-0.14,0.56h-8.43l-18.55-36.68h-1.83h-27.83v36.68h-7.87v-93.88h33.73
		c20.8,0,29.37,9.7,29.37,28.25c0,14.62-5.76,24.31-17.43,27.69L420.53,772.6z M391.86,729.59c12.65,0,19.25-7.03,19.25-20.38v-2.95
		c0-13.77-6.18-19.53-20.52-19.53h-26.84v42.86H391.86z"/>
	<path class="st0" d="M447.09,686.73v34.43h43.99v7.45h-43.99v44.55h-7.87v-93.88h56.64v7.45H447.09z"/>
	<path class="st0" d="M521.71,679.28v93.88h-7.87v-93.88H521.71z"/>
	<path class="st0" d="M611.38,772.6l-0.14,0.56h-8.43l-18.55-36.68h-1.83H554.6v36.68h-7.87v-93.88h33.73
		c20.8,0,29.37,9.7,29.37,28.25c0,14.62-5.76,24.31-17.43,27.69L611.38,772.6z M582.71,729.59c12.65,0,19.25-7.03,19.25-20.38v-2.95
		c0-13.77-6.18-19.53-20.52-19.53H554.6v42.86H582.71z"/>
	<path class="st0" d="M630.07,679.28h9.7l33.45,61.28h0.28l33.59-61.28h9.7v93.88h-8.01v-59.31c0-6.32,0.28-17,0.42-23.61h-0.7
		c-1.27,2.81-6.19,13.35-9.14,18.69l-24.17,43.99h-3.51l-24.17-43.99c-2.95-5.34-7.87-15.74-9.13-18.69h-0.7
		c0.14,6.61,0.28,17.29,0.28,23.61v59.31h-7.87V679.28z"/>
	<path class="st0" d="M814.6,772.6l-0.56,0.56h-7.73l-10.96-27.26h-45.54l-10.96,27.26h-7.87l-0.42-0.56l37.52-93.32h8.99
		L814.6,772.6z M792.53,739.01l-9.42-23.47c-3.65-8.71-7.03-18.41-10.26-28.11h-0.56c-3.23,9.7-6.75,19.39-10.4,28.11l-9.42,23.47
		H792.53z"/>
</g>
<g>
	<path class="st1" d="M8.94,531.89c0-11.71,0.9-22.98,11.26-32.67c6.31-6.08,15.32-9.46,26.58-9.46s20.28,3.38,26.58,9.46
		c10.36,9.69,11.26,20.95,11.26,32.67v77.95c0,11.72-0.9,22.98-11.26,32.67c-6.31,6.08-15.32,9.46-26.58,9.46
		s-20.28-3.38-26.58-9.46c-10.36-9.69-11.26-20.95-11.26-32.67V531.89z M67.74,528.28c0-5.63-0.45-11.26-5.86-16.45
		c-3.15-3.15-8.33-5.63-15.09-5.63s-11.94,2.48-15.09,5.63c-5.41,5.18-5.86,10.81-5.86,16.45v85.16c0,5.63,0.45,11.27,5.86,16.67
		c3.15,2.93,8.33,5.41,15.09,5.41s11.94-2.48,15.09-5.41c5.41-5.41,5.86-11.04,5.86-16.67V528.28z"/>
	<path class="st1" d="M221.15,492.01v142.15h49.79v15.55h-66.69v-157.7H221.15z"/>
	<path class="st1" d="M425.71,529.86c0-4.05-0.45-11.49-4.73-17.12c-2.7-3.15-6.98-6.53-15.09-6.53c-4.05,0-9.46,0.9-13.74,5.18
		c-5.41,5.63-5.86,13.06-5.86,19.15c0,4.73,0.23,12.84,4.05,18.93c3.15,4.51,8.56,7.21,12.39,8.56l14.42,5.18
		c6.53,2.25,14.87,6.08,20.05,13.29c5.63,7.66,6.31,16.22,6.31,26.13v5.63c0,15.54-4.28,27.03-10.36,33.79
		c-5.63,5.86-15.55,9.91-28.16,9.91c-15.55,0-25.46-5.63-30.41-12.39c-6.76-9.01-6.76-24.1-6.76-26.13v-5.63h16.9v4.51
		c0,4.28,0.68,11.71,4.51,16.67c4.96,5.86,11.72,6.54,15.55,6.54c10.36,0,14.87-4.06,17.35-6.99c4.28-5.41,4.51-12.84,4.51-18.25
		v-6.08c0-6.08-0.68-13.97-4.51-18.7c-3.83-5.18-10.14-7.66-12.84-8.56l-17.12-6.08c-7.66-2.7-15.32-6.98-19.6-16.9
		c-2.93-6.99-3.15-14.64-3.15-22.3v-4.73c0-12.61,4.73-22.08,11.26-28.16c6.98-6.76,16-9.01,25.91-9.01
		c21.63,0,36.05,13.97,36.05,39.2v5.41h-16.9V529.86z"/>
	<path class="st1" d="M560.2,492.01h63.3v15.55h-46.41v54.97h41v14.64h-41v57h47.09v15.55H560.2V492.01z"/>
	<path class="st1" d="M753.26,492.01l44.61,117.37V492.01h16.9v157.7h-16.9l-44.61-115.12v115.12h-16.9v-157.7H753.26z"/>
</g>
<text transform="matrix(1 0 0 1 100.5114 586.867)" class="st2 st3 st4 st5">OLSEN</text>
<path d="M625.12,846.59"/>
<radialGradient id="SVGID_1_" cx="379.4376" cy="451.0732" r="570.4362" fx="762.5787" fy="651.2415" gradientUnits="userSpaceOnUse">
	<stop  offset="0" style="stop-color:#62B5AE"/>
	<stop  offset="0.2906" style="stop-color:#5AACAA"/>
	<stop  offset="0.7927" style="stop-color:#4697A0"/>
	<stop  offset="1" style="stop-color:#3B8E9B"/>
</radialGradient>
<path class="st6" d="M583.84,252.27c-3.33,2.96,1.86,8.71,2.41,20.2c2.38,49.7-84.41,91.28-98.72,98.14
	c-21.49,10.3-73.3,32.55-189.11,39.23c-125.74,7.25-186.22-11.97-242.68,33.08c-16.31,13.02-26.77,27-32.64,35.86
	c0,0-5.68,9.71-9.51,20.64c-2.41,6.87-3.71,14.53-4.22,22.54c-0.35,3.26-0.43,6.58-0.43,9.93v77.95c0,11.72,0.9,22.98,11.26,32.67
	c6.31,6.08,15.32,9.46,26.58,9.46c1.03,0,2.03-0.06,3.02-0.12c-7.94-5-19.31-14.44-22.91-29.36c-0.03-0.14-0.05-0.27-0.08-0.41
	c-0.66-2.24-0.89-4.5-0.95-6.77c0-0.04,0-0.08,0-0.12c0,0.01,0.01,0.02,0.01,0.03c0-0.01-0.01-0.03-0.01-0.04
	c-0.07-1.29-0.1-2.56-0.06-3.78l0.04-0.34v-82.78c0-4.05,0.26-8.1,2.41-11.98l-0.04-0.05c0.33-0.54,0.63-1.08,0.98-1.62
	c22.37-34.67,62.38-43.43,74.06-45.36c4.42-0.73,9.58-1.1,19.92-1.72c27.86-1.68,50.48-1.32,65.76-0.69
	c88.66,3.8,231.51,10.99,323.92,11.86c24.57,0.23,105.25,0.17,190.01-40.4c33.01-15.8,42.79-25.73,45.87-37.03
	C765.39,340.04,604.36,234,583.84,252.27z"/>
<g>
	
		<linearGradient id="SVGID_00000101081918210895559490000006000663522831675054_" gradientUnits="userSpaceOnUse" x1="640.7573" y1="181.0132" x2="993.6667" y2="181.0132">
		<stop  offset="0" style="stop-color:#62B5AE"/>
		<stop  offset="0.0482" style="stop-color:#56A39F"/>
		<stop  offset="0.1453" style="stop-color:#438788"/>
		<stop  offset="0.2492" style="stop-color:#327074"/>
		<stop  offset="0.3594" style="stop-color:#245F64"/>
		<stop  offset="0.4784" style="stop-color:#195258"/>
		<stop  offset="0.6103" style="stop-color:#11494F"/>
		<stop  offset="0.7652" style="stop-color:#0B434A"/>
		<stop  offset="1" style="stop-color:#084249"/>
	</linearGradient>
	<path style="fill:url(#SVGID_00000101081918210895559490000006000663522831675054_);" d="M811.03,299.68
		c-1.83-7.81-5.59-24.63-1.62-45.86c3.64-19.47,11.92-32.78,16.57-40.09c12.58-19.77,27.25-31.16,35.74-37.84
		c43.9-34.54,66.08-52,86.11-73.28c8.86-9.41,57.52-61.11,43.22-86.11c-1.05-1.83-2.23-3.16-3.08-4.01l0,0
		c-0.86-0.84-2.21-2.01-4.07-3.04c-25.33-14.12-77.71,33.91-87.25,42.65c-21.56,19.77-39.25,41.66-74.25,84.99
		c-6.78,8.39-18.31,22.86-38.34,35.28c-7.4,4.59-20.89,12.77-40.62,16.36c-21.51,3.91-38.55,0.2-46.47-1.6
		c-14.8-3.38-26.25-8.85-33.79-13.15l-22.42,22.13l77.34,76.33l6.5,6.41l77.34,76.33l22.42-22.13
		C820,325.58,814.45,314.28,811.03,299.68z M933.94,65.81c-7.18-7.08-3.61-22.09,7.96-33.51c11.58-11.42,26.78-14.94,33.96-7.86
		c7.18,7.08,3.61,22.09-7.96,33.51C956.32,69.38,941.12,72.89,933.94,65.81z"/>
	
		<linearGradient id="SVGID_00000145751842576468365220000010322771226592969357_" gradientUnits="userSpaceOnUse" x1="582.4289" y1="307.7768" x2="795.2708" y2="307.7768">
		<stop  offset="0" style="stop-color:#62B5AE"/>
		<stop  offset="0.0252" style="stop-color:#5CABA6"/>
		<stop  offset="0.1361" style="stop-color:#478D8D"/>
		<stop  offset="0.2531" style="stop-color:#357477"/>
		<stop  offset="0.375" style="stop-color:#266166"/>
		<stop  offset="0.5035" style="stop-color:#1A5359"/>
		<stop  offset="0.6415" style="stop-color:#114950"/>
		<stop  offset="0.7959" style="stop-color:#0B434A"/>
		<stop  offset="1" style="stop-color:#084249"/>
	</linearGradient>
	<path style="fill:url(#SVGID_00000145751842576468365220000010322771226592969357_);" d="M795.27,359.81l-55.73,55l0,0
		c0,0-3.74-51.15-80.26-94.29s-76.85-67.83-76.85-67.83l52.64-51.95L795.27,359.81z"/>
</g>
</svg>
